<?xml version="1.0" standalone="no"?><svg xmlns:xlink="http://www.w3.org/1999/xlink" xmlns="http://www.w3.org/2000/svg" viewBox="0 0 1000 2000" preserveAspectRatio="xMaxYMax slice"><g transform="scale(3.8095238095238093)"><rect x="0" y="0" width="262.5" height="525" fill="#262626"/><rect x="0" y="0" width="65.625" height="65.625" fill="#262626"/><rect x="0" y="0" width="32.81" height="32.81" fill="#771919"/><path d="M 0 0 A 32.81 32.81 0 0 0 32.81 32.81 L 32.81 0" fill="#2a2a2a"/><rect x="32.81" y="0" width="32.81" height="32.81" fill="#272727"/><path d="M 32.81 32.81 A 32.81 32.81 0 0 0 65.62 0 L 32.81 0" fill="#462121"/><rect x="0" y="32.81" width="32.81" height="32.81" fill="#761919"/><path d="M 0 32.81 A 32.81 32.81 0 0 1  32.81 65.62 L 0 32.81 A 32.81 32.81 0 0 0 32.81 65.62" fill="#262626"/><rect x="32.81" y="32.81" width="32.81" height="32.81" fill="#352424"/><path d="M 32.81 32.81 A 32.81 32.81 0 0 1 65.62 65.62 L 32.81 65.62" fill="#462121"/><rect x="65.625" y="0" width="65.625" height="65.625" fill="#262626"/><rect x="65.63" y="0" width="32.81" height="32.81" fill="#272727"/><path d="M 65.63 32.81 A 32.81 32.81 0 0 1  98.44 0 L 98.44 32.81" fill="#4f1f1f"/><rect x="98.44" y="0" width="32.81" height="32.81" fill="#701a1a"/><path d="M 98.44 0 A 32.81 32.81 0 0 0 131.25 32.81 L 131.25 0" fill="#591e1e"/><rect x="65.63" y="32.81" width="32.81" height="32.81" fill="#2a2a2a"/><path d="M 65.63 32.81 A 32.81 32.81 0 0 0 98.44 65.62 L 98.44 32.81" fill="#342424"/><rect x="98.44" y="32.81" width="32.81" height="32.81" fill="#282828"/><path d="M 98.44 32.81 A 32.81 32.81 0 0 0 131.25 65.62 L 131.25 32.81" fill="#282626"/><rect x="131.25" y="0" width="65.63" height="65.63" fill="#422121"/><path d="M 131.25 0 A 65.63 65.63 0 0 1 196.88 65.63 L 131.25 65.63" fill="#282828"/><rect x="196.88" y="0" width="65.63" height="65.63" fill="#312424"/><path d="M 196.88 65.63 A 65.63 65.63 0 0 1  262.51 0 L 262.51 65.63" fill="#2b2b2b"/><rect x="0" y="65.63" width="65.63" height="65.63" fill="#262626"/><path d="M 0 131.26 A 65.63 65.63 0 0 0 65.63 65.63 L 0 65.63" fill="#2a2a2a"/><rect x="65.63" y="65.63" width="65.63" height="65.63" fill="#6c1b1b"/><path d="M 65.63 65.63 A 65.63 65.63 0 0 0 131.26 131.26 L 131.26 65.63" fill="#2a2a2a"/><rect x="131.25" y="65.63" width="65.63" height="65.63" fill="#282828"/><path d="M 131.25 65.63 A 65.63 65.63 0 0 0 196.88 131.26 L 196.88 65.63" fill="#2a2a2a"/><rect x="196.875" y="65.625" width="65.625" height="65.625" fill="#262626"/><rect x="196.88" y="65.63" width="32.81" height="32.81" fill="#2a2a2a"/><path d="M 196.88 65.63 A 32.81 32.81 0 0 1  229.69 98.44 L 196.88 65.63 A 32.81 32.81 0 0 0 229.69 98.44" fill="#4d2020"/><rect x="229.69" y="65.63" width="32.81" height="32.81" fill="#402222"/><path d="M 229.69 65.63 A 32.81 32.81 0 0 1  262.5 98.44 L 229.69 65.63 A 32.81 32.81 0 0 0 262.5 98.44" fill="#272727"/><rect x="196.88" y="98.44" width="32.81" height="32.81" fill="#272727"/><path d="M 196.88 131.25 A 32.81 32.81 0 0 1  229.69 98.44 L 229.69 131.25" fill="#2a2a2a"/><rect x="229.69" y="98.44" width="32.81" height="32.81" fill="#272727"/><path d="M 229.69 131.25 A 32.81 32.81 0 0 1  262.5 98.44 L 262.5 131.25" fill="#521f1f"/><rect x="0" y="131.25" width="65.63" height="65.63" fill="#4c2020"/><path d="M 0 196.88 A 65.63 65.63 0 0 1  65.63 131.25 L 65.63 196.88" fill="#262626"/><rect x="65.63" y="131.25" width="65.63" height="65.63" fill="#282828"/><path d="M 65.63 131.25 A 65.63 65.63 0 0 0 131.26 196.88 L 131.26 131.25" fill="#2a2a2a"/><rect x="131.25" y="131.25" width="65.63" height="65.63" fill="#2b2b2b"/><path d="M 131.25 131.25 A 65.63 65.63 0 0 1  196.88 196.88 L 131.25 131.25 A 65.63 65.63 0 0 0 196.88 196.88" fill="#292929"/><rect x="196.88" y="131.25" width="65.63" height="65.63" fill="#332424"/><path d="M 196.88 196.88 A 65.63 65.63 0 0 0 262.51 131.25 L 196.88 131.25" fill="#272727"/><rect x="0" y="196.875" width="65.625" height="65.625" fill="#262626"/><rect x="0" y="196.88" width="32.81" height="32.81" fill="#342424"/><path d="M 0 229.69 A 32.81 32.81 0 0 0 32.81 196.88 L 0 196.88" fill="#651c1c"/><rect x="32.81" y="196.88" width="32.81" height="32.81" fill="#272727"/><path d="M 32.81 229.69 A 32.81 32.81 0 0 1  65.62 196.88 L 32.81 229.69 A 32.81 32.81 0 0 0 65.62 196.88" fill="#611c1c"/><rect x="0" y="229.69" width="32.81" height="32.81" fill="#292929"/><path d="M 0 229.69 A 32.81 32.81 0 0 1  32.81 262.5 L 0 229.69 A 32.81 32.81 0 0 0 32.81 262.5" fill="#282828"/><rect x="32.81" y="229.69" width="32.81" height="32.81" fill="#272727"/><path d="M 32.81 229.69 A 32.81 32.81 0 0 0 65.62 262.5 L 65.62 229.69" fill="#272727"/><rect x="65.63" y="196.88" width="65.63" height="65.63" fill="#292626"/><path d="M 65.63 262.51 A 65.63 65.63 0 0 1  131.26 196.88 L 131.26 262.51" fill="#262626"/><rect x="131.25" y="196.88" width="65.63" height="65.63" fill="#2a2a2a"/><path d="M 131.25 262.51 A 65.63 65.63 0 0 1  196.88 196.88 L 196.88 262.51" fill="#681b1b"/><rect x="196.88" y="196.88" width="65.63" height="65.63" fill="#302424"/><path d="M 196.88 262.51 A 65.63 65.63 0 0 1  262.51 196.88 L 262.51 262.51" fill="#422121"/><rect x="0" y="262.5" width="65.63" height="65.63" fill="#2a2a2a"/><path d="M 0 328.13 A 65.63 65.63 0 0 0 65.63 262.5 L 0 262.5" fill="#282828"/><rect x="65.625" y="262.5" width="65.625" height="65.625" fill="#262626"/><rect x="65.63" y="262.5" width="32.81" height="32.81" fill="#472121"/><path d="M 65.63 262.5 A 32.81 32.81 0 0 1  98.44 295.31 L 65.63 262.5 A 32.81 32.81 0 0 0 98.44 295.31" fill="#531f1f"/><rect x="98.44" y="262.5" width="32.81" height="32.81" fill="#282828"/><path d="M 98.44 295.31 A 32.81 32.81 0 0 1  131.25 262.5 L 131.25 295.31" fill="#2a2a2a"/><rect x="65.63" y="295.31" width="32.81" height="32.81" fill="#352424"/><path d="M 65.63 295.31 A 32.81 32.81 0 0 1 98.44 328.12 L 65.63 328.12" fill="#2b2b2b"/><rect x="98.44" y="295.31" width="32.81" height="32.81" fill="#3b2323"/><path d="M 98.44 328.12 A 32.81 32.81 0 0 0 131.25 295.31 L 98.44 295.31" fill="#292929"/><rect x="131.25" y="262.5" width="65.625" height="65.625" fill="#262626"/><rect x="131.25" y="262.5" width="32.81" height="32.81" fill="#741919"/><path d="M 131.25 295.31 A 32.81 32.81 0 0 0 164.06 262.5 L 131.25 262.5" fill="#4b2020"/><rect x="164.06" y="262.5" width="32.81" height="32.81" fill="#292929"/><path d="M 164.06 262.5 A 32.81 32.81 0 0 0 196.87 295.31 L 196.87 262.5" fill="#5a1e1e"/><rect x="131.25" y="295.31" width="32.81" height="32.81" fill="#492020"/><path d="M 131.25 295.31 A 32.81 32.81 0 0 1  164.06 328.12 L 131.25 295.31 A 32.81 32.81 0 0 0 164.06 328.12" fill="#6a1b1b"/><rect x="164.06" y="295.31" width="32.81" height="32.81" fill="#691b1b"/><path d="M 164.06 328.12 A 32.81 32.81 0 0 0 196.87 295.31 L 164.06 295.31" fill="#272727"/><rect x="196.875" y="262.5" width="65.625" height="65.625" fill="#262626"/><rect x="196.88" y="262.5" width="32.81" height="32.81" fill="#2b2b2b"/><path d="M 196.88 262.5 A 32.81 32.81 0 0 1 229.69 295.31 L 196.88 295.31" fill="#6f1a1a"/><rect x="229.69" y="262.5" width="32.81" height="32.81" fill="#292929"/><path d="M 229.69 262.5 A 32.81 32.81 0 0 1  262.5 295.31 L 229.69 262.5 A 32.81 32.81 0 0 0 262.5 295.31" fill="#282828"/><rect x="196.88" y="295.31" width="32.81" height="32.81" fill="#721a1a"/><path d="M 196.88 328.12 A 32.81 32.81 0 0 1  229.69 295.31 L 229.69 328.12" fill="#472121"/><rect x="229.69" y="295.31" width="32.81" height="32.81" fill="#282828"/><path d="M 229.69 295.31 A 32.81 32.81 0 0 1 262.5 328.12 L 229.69 328.12" fill="#571e1e"/><rect x="0" y="328.125" width="65.625" height="65.625" fill="#262626"/><rect x="0" y="328.13" width="32.81" height="32.81" fill="#2a2525"/><path d="M 0 328.13 A 32.81 32.81 0 0 1  32.81 360.94 L 0 328.13 A 32.81 32.81 0 0 0 32.81 360.94" fill="#322424"/><rect x="32.81" y="328.13" width="32.81" height="32.81" fill="#4b2020"/><path d="M 32.81 360.94 A 32.81 32.81 0 0 1  65.62 328.13 L 65.62 360.94" fill="#2a2a2a"/><rect x="0" y="360.94" width="32.81" height="32.81" fill="#282828"/><path d="M 0 393.75 A 32.81 32.81 0 0 0 32.81 360.94 L 0 360.94" fill="#462121"/><rect x="32.81" y="360.94" width="32.81" height="32.81" fill="#501f1f"/><path d="M 32.81 360.94 A 32.81 32.81 0 0 1 65.62 393.75 L 32.81 393.75" fill="#571e1e"/><rect x="65.625" y="328.125" width="65.625" height="65.625" fill="#262626"/><rect x="65.63" y="328.13" width="32.81" height="32.81" fill="#322424"/><path d="M 65.63 328.13 A 32.81 32.81 0 0 1 98.44 360.94 L 65.63 360.94" fill="#282828"/><rect x="98.44" y="328.13" width="32.81" height="32.81" fill="#272727"/><path d="M 98.44 328.13 A 32.81 32.81 0 0 1  131.25 360.94 L 98.44 328.13 A 32.81 32.81 0 0 0 131.25 360.94" fill="#4f1f1f"/><rect x="65.63" y="360.94" width="32.81" height="32.81" fill="#7b1818"/><path d="M 65.63 393.75 A 32.81 32.81 0 0 0 98.44 360.94 L 65.63 360.94" fill="#292929"/><rect x="98.44" y="360.94" width="32.81" height="32.81" fill="#2a2a2a"/><path d="M 98.44 393.75 A 32.81 32.81 0 0 1  131.25 360.94 L 131.25 393.75" fill="#272727"/><rect x="131.25" y="328.125" width="65.625" height="65.625" fill="#262626"/><rect x="131.25" y="328.13" width="32.81" height="32.81" fill="#641c1c"/><path d="M 131.25 360.94 A 32.81 32.81 0 0 0 164.06 328.13 L 131.25 328.13" fill="#462121"/><rect x="164.06" y="328.13" width="32.81" height="32.81" fill="#2a2a2a"/><path d="M 164.06 360.94 A 32.81 32.81 0 0 1  196.87 328.13 L 164.06 360.94 A 32.81 32.81 0 0 0 196.87 328.13" fill="#292929"/><rect x="131.25" y="360.94" width="32.81" height="32.81" fill="#6b1b1b"/><path d="M 131.25 393.75 A 32.81 32.81 0 0 1  164.06 360.94 L 131.25 393.75 A 32.81 32.81 0 0 0 164.06 360.94" fill="#292929"/><rect x="164.06" y="360.94" width="32.81" height="32.81" fill="#462121"/><path d="M 164.06 393.75 A 32.81 32.81 0 0 1  196.87 360.94 L 196.87 393.75" fill="#2a2a2a"/><rect x="196.88" y="328.13" width="65.63" height="65.63" fill="#282828"/><path d="M 196.88 393.76 A 65.63 65.63 0 0 1  262.51 328.13 L 262.51 393.76" fill="#282828"/><rect x="0" y="393.75" width="65.63" height="65.63" fill="#6c1b1b"/><path d="M 0 393.75 A 65.63 65.63 0 0 0 65.63 459.38 L 65.63 393.75" fill="#292929"/><rect x="65.63" y="393.75" width="65.63" height="65.63" fill="#292929"/><path d="M 65.63 393.75 A 65.63 65.63 0 0 0 131.26 459.38 L 131.26 393.75" fill="#2b2b2b"/><rect x="131.25" y="393.75" width="65.625" height="65.625" fill="#262626"/><rect x="131.25" y="393.75" width="32.81" height="32.81" fill="#282828"/><path d="M 131.25 393.75 A 32.81 32.81 0 0 1 164.06 426.56 L 131.25 426.56" fill="#462121"/><rect x="164.06" y="393.75" width="32.81" height="32.81" fill="#272727"/><path d="M 164.06 426.56 A 32.81 32.81 0 0 1  196.87 393.75 L 196.87 426.56" fill="#272727"/><rect x="131.25" y="426.56" width="32.81" height="32.81" fill="#2d2525"/><path d="M 131.25 459.37 A 32.81 32.81 0 0 0 164.06 426.56 L 131.25 426.56" fill="#4f1f1f"/><rect x="164.06" y="426.56" width="32.81" height="32.81" fill="#2f2525"/><path d="M 164.06 426.56 A 32.81 32.81 0 0 1  196.87 459.37 L 164.06 426.56 A 32.81 32.81 0 0 0 196.87 459.37" fill="#691b1b"/><rect x="196.875" y="393.75" width="65.625" height="65.625" fill="#262626"/><rect x="196.88" y="393.75" width="32.81" height="32.81" fill="#292929"/><path d="M 196.88 426.56 A 32.81 32.81 0 0 1  229.69 393.75 L 196.88 426.56 A 32.81 32.81 0 0 0 229.69 393.75" fill="#4f1f1f"/><rect x="229.69" y="393.75" width="32.81" height="32.81" fill="#292929"/><path d="M 229.69 393.75 A 32.81 32.81 0 0 1  262.5 426.56 L 229.69 393.75 A 32.81 32.81 0 0 0 262.5 426.56" fill="#621c1c"/><rect x="196.88" y="426.56" width="32.81" height="32.81" fill="#7a1818"/><path d="M 196.88 426.56 A 32.81 32.81 0 0 1 229.69 459.37 L 196.88 459.37" fill="#2a2a2a"/><rect x="229.69" y="426.56" width="32.81" height="32.81" fill="#2b2b2b"/><path d="M 229.69 426.56 A 32.81 32.81 0 0 0 262.5 459.37 L 262.5 426.56" fill="#262626"/><rect x="0" y="459.38" width="65.63" height="65.63" fill="#292929"/><path d="M 0 459.38 A 65.63 65.63 0 0 0 65.63 525.01 L 65.63 459.38" fill="#2a2a2a"/><rect x="65.625" y="459.375" width="65.625" height="65.625" fill="#262626"/><rect x="65.63" y="459.38" width="32.81" height="32.81" fill="#272727"/><path d="M 65.63 492.19 A 32.81 32.81 0 0 1  98.44 459.38 L 65.63 492.19 A 32.81 32.81 0 0 0 98.44 459.38" fill="#711a1a"/><rect x="98.44" y="459.38" width="32.81" height="32.81" fill="#571e1e"/><path d="M 98.44 459.38 A 32.81 32.81 0 0 1  131.25 492.19 L 98.44 459.38 A 32.81 32.81 0 0 0 131.25 492.19" fill="#731a1a"/><rect x="65.63" y="492.19" width="32.81" height="32.81" fill="#2b2525"/><path d="M 65.63 525 A 32.81 32.81 0 0 1  98.44 492.19 L 98.44 525" fill="#5c1d1d"/><rect x="98.44" y="492.19" width="32.81" height="32.81" fill="#2b2b2b"/><path d="M 98.44 525 A 32.81 32.81 0 0 1  131.25 492.19 L 98.44 525 A 32.81 32.81 0 0 0 131.25 492.19" fill="#272727"/><rect x="131.25" y="459.375" width="65.625" height="65.625" fill="#262626"/><rect x="131.25" y="459.38" width="32.81" height="32.81" fill="#721a1a"/><path d="M 131.25 459.38 A 32.81 32.81 0 0 0 164.06 492.19 L 164.06 459.38" fill="#282828"/><rect x="164.06" y="459.38" width="32.81" height="32.81" fill="#611c1c"/><path d="M 164.06 492.19 A 32.81 32.81 0 0 1  196.87 459.38 L 164.06 492.19 A 32.81 32.81 0 0 0 196.87 459.38" fill="#272727"/><rect x="131.25" y="492.19" width="32.81" height="32.81" fill="#262626"/><path d="M 131.25 525 A 32.81 32.81 0 0 1  164.06 492.19 L 131.25 525 A 32.81 32.81 0 0 0 164.06 492.19" fill="#282828"/><rect x="164.06" y="492.19" width="32.81" height="32.81" fill="#272727"/><path d="M 164.06 492.19 A 32.81 32.81 0 0 1 196.87 525 L 164.06 525" fill="#282828"/><rect x="196.88" y="459.38" width="65.63" height="65.63" fill="#262626"/><path d="M 196.88 459.38 A 65.63 65.63 0 0 1 262.51 525.01 L 196.88 525.01" fill="#272727"/></g></svg>