<?xml version="1.0" encoding="utf-8"?>
<svg viewBox="128.162704 7.27643 1082 1080" width="1082" height="1080" xmlns="http://www.w3.org/2000/svg">
  <rect class="cls-1" width="1082" height="1080" rx="143.64" transform="matrix(1, 0, 0, 1, 128.162704, 7.27643)" style="fill: rgb(43, 45, 66);"/>
  <rect class="cls-2" x="296.12" y="416.62" width="702.27" height="181.56" rx="90.78" transform="matrix(0.700785, -0.713373, 0.713373, 0.700785, -40.127296, 620.846436)" style="fill: rgb(237, 242, 244);"/>
  <rect class="cls-2" x="607.87" y="37.43" width="181.56" height="461.86" rx="90.78" transform="matrix(0.356086, -0.934453, 0.934453, 0.356086, 327.242706, 832.916443)" style="fill: rgb(237, 242, 244);"/>
  <path class="cls-2" d="M279.27,778.82c-43.58,28.9-67.85,66.5-80.79,87a327.93,327.93,0,0,0-38.59,87.1C331.62,903.84,356.41,924.37,388,908.19c24.13-12.37,33.4-32.42,36.65-44.34,9.23-33.89,4.34-54.92-21.54-81.66C372.65,750.74,326.85,747.27,279.27,778.82Z" transform="matrix(1, 0, 0, 1, 128.162704, 7.27643)" style="fill: rgb(237, 242, 244);"/>
  <rect class="cls-3" x="555.98" y="222.31" width="181.56" height="702.27" rx="90.78" transform="matrix(0.713373, -0.700785, 0.700785, 0.713373, -88.317299, 624.866455)" style="fill: rgb(239, 35, 60);"/>
  <rect class="cls-3" x="467.22" y="721.69" width="461.86" height="181.56" rx="90.78" transform="matrix(0.934453, -0.356086, 0.356086, 0.934453, -115.397301, 309.156433)" style="fill: rgb(239, 35, 60);"/>
  <path class="cls-3" d="M278.77,302c-43.58-28.9-67.84-66.5-80.79-87a328.07,328.07,0,0,1-38.59-87.1C331.12,177,355.92,156.46,387.48,172.65,411.6,185,420.87,205.06,424.12,217c9.23,33.89,4.34,54.92-21.53,81.66C372.16,330.1,326.36,333.57,278.77,302Z" transform="matrix(1, 0, 0, 1, 128.162704, 7.27643)" style="fill: rgb(239, 35, 60);"/>
  <path class="cls-3" d="M445,677" transform="matrix(1, 0, 0, 1, 128.162704, 7.27643)" style="fill: rgb(193, 39, 45);"/>
  <path class="cls-4" d="M356.5,689.5" transform="matrix(1, 0, 0, 1, 128.162704, 7.27643)" style="fill: rgb(26, 26, 26); stroke: rgb(0, 0, 0); stroke-miterlimit: 10;"/>
</svg>